<svg width="17" height="22" viewBox="0 0 17 22" fill="none" xmlns="http://www.w3.org/2000/svg">
<path d="M12.2495 16.1256C12.2495 15.7538 12.1923 15.4202 12.0779 15.1247C11.9731 14.8197 11.7729 14.5432 11.4774 14.2954C11.1819 14.038 10.7672 13.7854 10.2334 13.5376C9.69962 13.2897 9.00853 13.0323 8.16015 12.7654C7.21645 12.4604 6.32041 12.1172 5.47204 11.736C4.63319 11.3547 3.88967 10.9114 3.24148 10.4062C2.60281 9.89145 2.0976 9.29568 1.72584 8.61888C1.36361 7.94209 1.18249 7.15567 1.18249 6.25963C1.18249 5.39219 1.37314 4.60578 1.75443 3.90039C2.13573 3.18546 2.66954 2.57539 3.35586 2.07018C4.04219 1.55543 4.85244 1.15984 5.78661 0.883406C6.7303 0.606969 7.76456 0.46875 8.88938 0.46875C10.4241 0.46875 11.7634 0.745187 12.9072 1.29806C14.0511 1.85094 14.9376 2.60876 15.5668 3.57152C16.2054 4.53428 16.5248 5.63527 16.5248 6.87447H12.2638C12.2638 6.2644 12.1351 5.73059 11.8778 5.27304C11.6299 4.80596 11.2486 4.43896 10.7339 4.17206C10.2287 3.90515 9.59 3.7717 8.81788 3.7717C8.07436 3.7717 7.45476 3.88609 6.95908 4.11486C6.4634 4.33411 6.09164 4.63437 5.8438 5.01567C5.59596 5.38743 5.47204 5.80685 5.47204 6.27393C5.47204 6.62663 5.55783 6.94596 5.72941 7.23193C5.91053 7.5179 6.17743 7.78481 6.53013 8.03265C6.88282 8.28049 7.31654 8.51403 7.83129 8.73327C8.34603 8.95252 8.9418 9.16699 9.6186 9.3767C10.7529 9.71987 11.7491 10.1059 12.607 10.5349C13.4744 10.9638 14.1989 11.4452 14.7803 11.979C15.3618 12.5128 15.8003 13.1181 16.0958 13.7949C16.3913 14.4717 16.5391 15.2391 16.5391 16.097C16.5391 17.0026 16.3627 17.8128 16.01 18.5277C15.6573 19.2427 15.1473 19.848 14.4801 20.3436C13.8128 20.8393 13.0169 21.2158 12.0922 21.4732C11.1676 21.7306 10.1333 21.8593 8.98946 21.8593C7.95997 21.8593 6.94478 21.7258 5.94389 21.4589C4.94299 21.1825 4.03266 20.7678 3.21288 20.215C2.40263 19.6621 1.75443 18.9567 1.26829 18.0988C0.782137 17.2409 0.539062 16.2257 0.539062 15.0532H4.84291C4.84291 15.7014 4.94299 16.2495 5.14317 16.6975C5.34335 17.1455 5.62456 17.5078 5.98678 17.7842C6.35854 18.0606 6.79703 18.2608 7.30224 18.3847C7.81699 18.5087 8.3794 18.5706 8.98946 18.5706C9.73299 18.5706 10.3431 18.4658 10.8197 18.2561C11.3058 18.0463 11.6633 17.7556 11.8921 17.3839C12.1304 17.0121 12.2495 16.5927 12.2495 16.1256Z" fill="#166AEA"/>
</svg>
